<?xml version="1.0" encoding="UTF-8"?>
<svg xmlns="http://www.w3.org/2000/svg" xmlns:xlink="http://www.w3.org/1999/xlink" id="Capa_1" x="0px" y="0px" viewBox="0 0 200 60" style="enable-background:new 0 0 200 60;" xml:space="preserve">
  <style type="text/css">	.st0{fill:#FFFFFF;}</style>
  <g>	<path class="st0" d="M5,13.4c4.8,8.6,9.6,17.1,14.5,25.7c3.3-5.7,6.5-11.3,9.8-16.9c0.1,0.2,0.2,0.3,0.3,0.5c1.3,2.3,2.6,4.6,4,6.9  c0.2,0.3,0.2,0.6,0,0.9c-0.7,1.1-1.3,2.2-2,3.5c-0.8-1.3-1.5-2.6-2.3-4c-3.3,5.7-6.5,11.3-9.8,17c-4.9-8.5-9.6-17-14.4-25.4  c-0.1,0-0.1,0-0.2,0c-0.3,1.3-0.7,2.6-0.9,3.9c-1.3,8.1,0.7,15.3,5.9,21.6c4.3,5.1,9.9,8.2,16.5,9C39.7,57.7,52,49,55,35.8  c0.8-3.4,0.8-6.8,0.3-10.2c0-0.2-0.1-0.4,0-0.5c0.8-1.5,1.6-2.9,2.5-4.4c3.8,10.8,0.9,25.7-11.6,34.2C34,63.2,17.8,61.2,7.9,50.4  C-2,39.5-2.1,24,5,13.4z"></path>	<path class="st0" d="M9,14c-0.7-1.1-1.3-2.2-2-3.4C7.8,9.8,8.5,9,9.3,8.3c4.5-4.3,9.8-7,16-7.9c12.6-2,25,4.5,30.7,16.1  c0.1,0.2,0,0.6-0.1,0.8c-2.9,5.1-5.8,10.3-8.8,15.4c-2.6,4.5-5.2,9.1-7.8,13.6c-0.1,0.2-0.2,0.4-0.4,0.6c-0.7-1.2-1.4-2.4-2-3.5  c-0.6-1-1.1-1.9-1.6-2.9c-0.1-0.1-0.1-0.4,0-0.5c0.7-1.2,1.3-2.4,2.1-3.7c0.5,0.9,1.1,1.8,1.6,2.8c0.2-0.3,0.3-0.4,0.4-0.6  c4.1-7.1,8.1-14.3,12.2-21.4c0.2-0.4,0.2-0.7,0-1.1c-4.3-6.6-10.2-10.8-18-11.9C23.8,2.6,15.8,6,9.4,13.6C9.3,13.6,9.2,13.8,9,14z"></path>	<path class="st0" d="M102.3,29.5c0.2,5.5-4.5,10.3-10.4,10.3c-5.5,0-10.5-4.4-10.4-10.6c0.1-5.4,4.7-10.1,10.6-10  C97.8,19.2,102.6,24,102.3,29.5z M92,36.6c3.9,0,7-3.2,6.9-7.1c0-4-3.1-7.1-7-7.1c-3.7,0-7,2.9-6.9,7.2C85,34,88.5,36.6,92,36.6z"></path>	<path class="st0" d="M140.4,19.6c0.2,0,0.3,0,0.5,0c2.5,0,4.9,0,7.4,0c2.8,0,5.2,2,5.9,4.7c0.7,2.8-0.5,5.6-3,7  c-0.1,0.1-0.2,0.1-0.4,0.2c1.6,2.6,3.1,5.2,4.7,7.9c-1.3,0-2.5,0-3.7,0c-0.2,0-0.3-0.2-0.5-0.4c-1.2-2-2.4-4-3.6-6.1  c-0.2-0.4-0.5-0.6-1-0.6c-0.9,0-1.9,0-2.9,0c0,2.4,0,4.7,0,7c-1.2,0-2.3,0-3.5,0C140.4,32.8,140.4,26.2,140.4,19.6z M143.8,22.7  c0,2.1,0,4.1,0,6.1c0,0.1,0.2,0.4,0.3,0.4c1.4,0,2.8,0.1,4.2-0.1c1.5-0.2,2.5-1.6,2.4-3.4c0-1.5-1.1-2.8-2.5-2.9  C146.8,22.6,145.4,22.7,143.8,22.7z"></path>	<path class="st0" d="M78.4,22.4c-0.8,0.6-1.6,1.1-2.4,1.7c-0.9-1.3-2.2-1.8-3.7-1.7c-0.4,0-0.7,0.1-1.1,0.2  c-0.8,0.3-1.4,0.9-1.5,1.8s0.4,1.7,1.2,2c1.1,0.5,2.2,0.9,3.3,1.4c1,0.5,1.9,0.9,2.8,1.5c1.8,1.1,2.5,2.8,2.4,4.9  c-0.2,2.4-1.3,4.2-3.6,4.9c-3,1-6,0.8-8.6-1.2c-0.8-0.6-1.3-1.6-2-2.4c-0.1-0.1,0-0.5,0.1-0.6c0.7-0.5,1.5-1,2.3-1.5  c0.1,0.2,0.2,0.3,0.3,0.5c1.3,2.3,4.1,2.9,6.2,2.3c1-0.3,1.7-1.1,1.8-2.2c0.1-1-0.3-1.8-1.2-2.3c-0.9-0.5-1.9-0.9-2.9-1.4  c-1.1-0.5-2.3-1-3.4-1.7c-3-1.8-3-6.9,0.4-8.8c3-1.7,7.2-0.9,9.2,1.9C78.2,22,78.3,22.2,78.4,22.4z"></path>	<path class="st0" d="M44.7,21c-4.9,8.7-9.8,17.3-14.7,25.9c-0.2-0.4-0.4-0.7-0.6-1c-1.2-2.1-2.4-4.1-3.6-6.2c-0.2-0.4-0.2-0.6,0-1  c0.7-1.1,1.3-2.2,2-3.4c0.7,1.2,1.4,2.4,2.2,3.7c0.5-0.9,1-1.8,1.5-2.6c2.8-5,5.7-10,8.5-15c0.2-0.4,0.4-0.5,0.9-0.5  C42,21,43.3,21,44.7,21z"></path>	<path class="st0" d="M105.7,19.6c1.1,0,2.2,0,3.4,0c0,0.3,0,0.5,0,0.7c0,5,0,10,0,15c0,0.9,0,0.9,0.9,0.9c2.5,0,4.9,0,7.4,0  c0.2,0,0.4,0,0.8,0c-0.5,1.1-0.9,2-1.4,3c0,0.1-0.2,0.2-0.3,0.2c-3.5,0-7.1,0-10.6,0c0,0,0,0-0.1-0.1  C105.7,32.7,105.7,26.2,105.7,19.6z"></path>	<path class="st0" d="M200,25.7c-0.6,0.6-1.3,1.1-1.9,1.6c-2.9-3-6.9-2.1-8.7-0.2c-2,2.2-2,5.8-0.1,8c1.7,2,5.9,3,8.9-0.1  c0.6,0.5,1.2,1.1,1.8,1.6c-1.8,2.4-5.3,3.6-8.8,2.7c-3.4-0.9-5.9-4-6.1-7.3c-0.2-4.3,1.8-7.5,5.4-8.8C194,22,198,23,200,25.7z"></path>	<path class="st0" d="M130.2,23.7c2.5,5.3,4.9,10.4,7.3,15.7c-4.2,0-8.2,0-12.4,0c0.5-1,0.9-2,1.3-2.9c0.1-0.1,0.4-0.2,0.6-0.2  c1.5,0,3,0,4.5,0c0.2,0,0.4,0,0.8,0c-0.1-0.3-0.1-0.5-0.2-0.6c-1.1-2.5-2.2-5-3.3-7.5c-0.1-0.3-0.1-0.7,0-1  C129.2,25.9,129.7,24.8,130.2,23.7z"></path>	<path class="st0" d="M118.2,39.4c3.2-6.9,6.4-13.8,9.7-20.8c0.3,0.7,0.6,1.4,0.9,1.9c0.7,1.1,0.6,2.1,0.1,3.2  c-2.3,5-4.5,10.1-6.8,15.2c-0.2,0.4-0.4,0.5-0.8,0.5C120.3,39.4,119.3,39.4,118.2,39.4z"></path>	<path class="st0" d="M165.8,23c0,4.6,0,9.1,0,13.7c0.4,0,0.8,0,1.2,0c1.5,0,3,0,4.6,0c0.5,0,0.7,0.1,0.7,0.7c-0.1,0.6,0,1.2,0,1.9  c-3.1,0-6.2,0-9.3,0c0-5.4,0-10.8,0-16.3C163.9,23,164.8,23,165.8,23z"></path>	<path class="st0" d="M174.9,23c0.9,0,1.8,0,2.7,0c0,0.3,0,0.5,0,0.8c0,4,0,8,0,12c0,1-0.2,1,1,1c1.6,0,3.2,0,4.8,0  c0.2,0,0.4,0,0.6,0c0,0.9,0,1.7,0,2.6c-3.1,0-6.1,0-9.2,0C174.9,33.9,174.9,28.5,174.9,23z"></path>	<path class="st0" d="M15.1,21c1.5,0,2.9,0,4.2,0c0.2,0,0.4,0.2,0.4,0.3c1.3,2.3,2.7,4.6,4,6.9c0.1,0.2,0.1,0.4,0,0.6  c-0.6,1.2-1.3,2.3-2.1,3.6C19.5,28.6,17.3,24.9,15.1,21z"></path>	<path class="st0" d="M156.9,43.9c-0.1,0.3-0.2,0.6-0.3,0.9c-0.4,1.3-0.7,2.6-1.1,3.8c-0.1,0.2-0.3,0.4-0.5,0.4s-0.4-0.2-0.5-0.4  c-0.3-1-0.6-2-1.1-3c-0.3,1-0.6,2-0.9,2.9c-0.1,0.2-0.3,0.3-0.5,0.4c-0.1,0-0.3-0.1-0.4-0.3c-0.5-1.6-1-3.3-1.5-4.9  c0.7-0.3,0.8-0.2,1,0.4c0.3,0.9,0.6,1.9,1,2.8c0.1-0.4,0.3-0.9,0.4-1.3c0.2-0.5,0.3-1,0.4-1.5c0.1-0.3,0.1-0.7,0.5-0.6  c0.2,0.1,0.4,0.3,0.5,0.6c0.3,0.8,0.5,1.5,0.7,2.3c0.1,0.2,0.1,0.3,0.2,0.7c0.3-1.1,0.7-2,0.9-3C156.1,43.8,156.3,43.7,156.9,43.9z  "></path>	<path class="st0" d="M131.3,45.6c-0.3,0.9-0.5,1.5-0.7,2.2c-0.1,0.3-0.2,0.6-0.3,0.9c-0.1,0.2-0.3,0.4-0.5,0.4s-0.4-0.2-0.5-0.4  c-0.5-1.5-0.9-3-1.3-4.5c0-0.1,0-0.2-0.1-0.3c0.7-0.2,0.8-0.2,1,0.5c0.3,0.9,0.6,1.8,1,2.8c0.2-0.8,0.5-1.6,0.7-2.3  c0.1-0.2,0.1-0.5,0.2-0.6c0.1-0.2,0.3-0.4,0.5-0.4s0.4,0.2,0.4,0.4c0.3,0.8,0.5,1.7,0.8,2.5c0,0.1,0.1,0.3,0.2,0.5  c0.1-0.3,0.2-0.5,0.2-0.6c0.2-0.7,0.4-1.5,0.7-2.2c0.2-0.7,0.3-0.7,1-0.5c-0.5,1.7-1,3.3-1.5,5c0,0.1-0.2,0.2-0.3,0.2  c-0.3,0.1-0.5-0.1-0.6-0.4c-0.2-0.8-0.5-1.6-0.7-2.4C131.5,46.1,131.4,45.9,131.3,45.6z"></path>	<path class="st0" d="M143.5,47.5c0-1.2,0-2.1,0-3.1c0-0.4,0-0.6,0.5-0.6c0.4,0,0.4,0.3,0.4,0.6c0,1.6,0,3.1,0,4.7  c-0.5,0.2-0.8,0.1-1.1-0.3c-0.7-0.9-1.3-1.8-2-2.7c-0.1-0.2-0.3-0.3-0.5-0.6c0,1.3,0,2.5,0,3.7c-0.3,0-0.6,0-0.9,0  c0-1.3,0-2.5,0-3.8c0-0.2,0-0.5,0-0.7c0-0.3,0.1-0.6,0.2-0.7c0.4-0.2,0.7,0,0.9,0.4c0.6,0.9,1.3,1.8,2,2.7  C143.1,47,143.3,47.2,143.5,47.5z"></path>	<path class="st0" d="M165.8,47.3c0-1,0-1.9,0-2.9c0-0.3,0-0.6,0.4-0.6s0.4,0.3,0.4,0.6c0,1.5,0,3,0,4.5c0,0.1,0,0.1,0,0.2  c-0.4,0.2-0.7,0-1-0.3c-0.8-1.1-1.6-2.2-2.6-3.2c0,1.2,0,2.3,0,3.5c-0.3,0-0.6,0-0.9,0c0-0.9,0-1.8,0-2.6c0-0.7,0-1.3,0-2  c0-0.2,0.1-0.4,0.2-0.6c0.3,0.1,0.7,0.1,0.8,0.3c0.7,0.8,1.3,1.7,1.9,2.5c0.2,0.2,0.3,0.4,0.5,0.7  C165.7,47.3,165.8,47.3,165.8,47.3z"></path>	<path class="st0" d="M190.6,43.7c1.6,0,2.8,1.2,2.8,2.7c0,1.6-1.2,2.7-2.8,2.7s-2.7-1.2-2.7-2.7C187.9,44.8,189,43.7,190.6,43.7z   M192.5,46.5c0-1.1-0.8-1.9-1.9-1.9c-1.1,0-1.9,0.9-1.9,1.9s0.9,1.9,1.9,1.9C191.7,48.4,192.5,47.5,192.5,46.5z"></path>	<path class="st0" d="M122.9,49.1c-0.6,0.2-1,0.1-1.1-0.5c-0.1-0.4-0.4-0.5-0.8-0.5c-0.3,0-0.5,0-0.8,0c-0.7-0.1-1.2,0-1.4,0.8  c-0.1,0.2-0.6,0.3-0.9,0.4c0-0.1-0.1-0.1-0.1-0.2c0.1-0.3,0.2-0.6,0.4-0.9c0.5-1.3,1-2.5,1.6-3.8c0.1-0.2,0.4-0.5,0.6-0.5  s0.5,0.2,0.6,0.4c0.6,1.4,1.2,2.9,1.8,4.3C122.8,48.7,122.9,48.9,122.9,49.1z M120.5,45.2c-0.1,0-0.1,0-0.2,0  c-0.3,0.7-0.5,1.3-0.8,2c0.6,0,1.2,0,1.8,0C121,46.5,120.8,45.9,120.5,45.2z"></path>	<path class="st0" d="M196.3,45.6c0,0.5,0,0.9,0,1.4c0,0.9,0.4,1.3,1.2,1.3s1.2-0.4,1.3-1.3c0-0.9,0-1.8,0-2.7c0-0.3,0-0.6,0.4-0.6  s0.5,0.2,0.5,0.6c0,1,0,2.1-0.1,3.1s-0.9,1.6-2,1.6c-1.2,0-2-0.6-2.1-1.6c-0.1-1.1-0.1-2.2-0.1-3.3c0-0.4,0.2-0.5,0.5-0.4  c0.2,0.1,0.3,0.3,0.4,0.5C196.3,44.7,196.3,45.2,196.3,45.6L196.3,45.6z"></path>	<path class="st0" d="M172.9,48c0.1-0.4,0.1-0.7,0.2-0.9c0.4-0.9,0.9-1.8,1.3-2.7c0.2-0.5,0.5-0.7,1.1-0.5c-0.5,1.1-1,2.2-1.6,3.3  c0.6,0,1.1,0,1.6,0c0.2-0.4-0.1-1.3,0.9-1c0,0.9,0,1.9,0,2.8c-0.7,0.2-0.7,0.2-0.9-1C174.7,48,173.8,48,172.9,48z"></path>	<path class="st0" d="M186.6,43.9c-0.5,0.8-0.9,1.6-1.3,2.3c-0.4,0.6-0.6,1.2-0.5,2c0,0.3,0,0.6,0,0.9c-0.3,0-0.5,0-0.9,0  c0.6-2.1-1-3.5-1.8-5.2c0.5-0.2,0.9-0.2,1.2,0.4c0.3,0.6,0.7,1.2,1.1,1.9c0.4-0.7,0.7-1.2,1-1.8C185.6,43.8,186,43.7,186.6,43.9z"></path>	<path class="st0" d="M159.8,49.1c-0.3,0-0.6,0-0.9,0c0-0.5,0-1.1,0-1.6c0-1,0-2.1,0-3.1c0-0.3,0-0.6,0.4-0.6s0.5,0.2,0.5,0.5  C159.8,45.9,159.8,47.5,159.8,49.1z"></path>	<path class="st0" d="M137.5,49.1c-0.3,0-0.5,0-0.8,0c0-0.6,0-1.3,0-1.9c0-1,0-2,0-3c0-0.1,0.2-0.4,0.4-0.4c0.3-0.1,0.5,0.1,0.4,0.4  C137.5,45.8,137.5,47.4,137.5,49.1z"></path></g>
</svg>
